<mxfile host="app.diagrams.net" modified="2023-05-31T17:27:16.223Z" agent="Mozilla/5.0 (X11; Ubuntu; Linux x86_64; rv:109.0) Gecko/20100101 Firefox/113.0" etag="2pC2w_NdaHvLGextw27t" version="21.3.5" type="github">
  <diagram name="Side-1" id="osRv1A4a_fG0d58dlFmP">
    <mxGraphModel dx="1360" dy="795" grid="1" gridSize="10" guides="1" tooltips="1" connect="1" arrows="1" fold="1" page="1" pageScale="1" pageWidth="827" pageHeight="1169" math="0" shadow="0">
      <root>
        <mxCell id="0" />
        <mxCell id="1" parent="0" />
        <mxCell id="8L1MjitNSCZlOtgvuLpw-4" style="edgeStyle=orthogonalEdgeStyle;rounded=0;orthogonalLoop=1;jettySize=auto;html=1;exitX=1;exitY=0.5;exitDx=0;exitDy=0;" parent="1" source="8L1MjitNSCZlOtgvuLpw-1" target="8L1MjitNSCZlOtgvuLpw-3" edge="1">
          <mxGeometry relative="1" as="geometry" />
        </mxCell>
        <mxCell id="8L1MjitNSCZlOtgvuLpw-8" style="edgeStyle=orthogonalEdgeStyle;rounded=0;orthogonalLoop=1;jettySize=auto;html=1;exitX=0;exitY=0.5;exitDx=0;exitDy=0;entryX=0.5;entryY=0;entryDx=0;entryDy=0;" parent="1" source="8L1MjitNSCZlOtgvuLpw-1" target="8L1MjitNSCZlOtgvuLpw-7" edge="1">
          <mxGeometry relative="1" as="geometry" />
        </mxCell>
        <mxCell id="8L1MjitNSCZlOtgvuLpw-1" value="&lt;div&gt;Is the client&amp;nbsp; connected &lt;br&gt;&lt;/div&gt;&lt;div&gt;through the relay?&lt;/div&gt;" style="rhombus;whiteSpace=wrap;html=1;fillColor=#dae8fc;strokeColor=#6c8ebf;" parent="1" vertex="1">
          <mxGeometry x="300" y="130" width="200" height="130" as="geometry" />
        </mxCell>
        <mxCell id="8L1MjitNSCZlOtgvuLpw-21" style="edgeStyle=orthogonalEdgeStyle;rounded=0;orthogonalLoop=1;jettySize=auto;html=1;entryX=0.5;entryY=0;entryDx=0;entryDy=0;exitX=1;exitY=0.5;exitDx=0;exitDy=0;" parent="1" source="8L1MjitNSCZlOtgvuLpw-3" target="8L1MjitNSCZlOtgvuLpw-20" edge="1">
          <mxGeometry relative="1" as="geometry" />
        </mxCell>
        <mxCell id="8L1MjitNSCZlOtgvuLpw-38" style="edgeStyle=orthogonalEdgeStyle;rounded=0;orthogonalLoop=1;jettySize=auto;html=1;exitX=0.5;exitY=1;exitDx=0;exitDy=0;entryX=0.5;entryY=0;entryDx=0;entryDy=0;" parent="1" source="8L1MjitNSCZlOtgvuLpw-3" target="8L1MjitNSCZlOtgvuLpw-35" edge="1">
          <mxGeometry relative="1" as="geometry">
            <Array as="points">
              <mxPoint x="580" y="540" />
              <mxPoint x="580" y="540" />
            </Array>
          </mxGeometry>
        </mxCell>
        <mxCell id="8L1MjitNSCZlOtgvuLpw-3" value="&lt;div&gt;Is the connection to the &lt;br&gt;&lt;/div&gt;&lt;div&gt;server under the threshold for reestablishment&lt;br&gt;&lt;/div&gt;" style="rhombus;whiteSpace=wrap;html=1;fillColor=#dae8fc;strokeColor=#6c8ebf;" parent="1" vertex="1">
          <mxGeometry x="480" y="270" width="200" height="130" as="geometry" />
        </mxCell>
        <mxCell id="8L1MjitNSCZlOtgvuLpw-5" value="YES" style="text;html=1;align=center;verticalAlign=middle;resizable=0;points=[];autosize=1;strokeColor=none;fillColor=none;" parent="1" vertex="1">
          <mxGeometry x="510" y="160" width="50" height="30" as="geometry" />
        </mxCell>
        <mxCell id="8L1MjitNSCZlOtgvuLpw-12" style="edgeStyle=orthogonalEdgeStyle;rounded=0;orthogonalLoop=1;jettySize=auto;html=1;entryX=0.5;entryY=0;entryDx=0;entryDy=0;" parent="1" source="8L1MjitNSCZlOtgvuLpw-7" target="8L1MjitNSCZlOtgvuLpw-11" edge="1">
          <mxGeometry relative="1" as="geometry" />
        </mxCell>
        <mxCell id="8L1MjitNSCZlOtgvuLpw-15" style="edgeStyle=orthogonalEdgeStyle;rounded=0;orthogonalLoop=1;jettySize=auto;html=1;entryX=0.5;entryY=0;entryDx=0;entryDy=0;" parent="1" source="8L1MjitNSCZlOtgvuLpw-7" target="8L1MjitNSCZlOtgvuLpw-19" edge="1">
          <mxGeometry relative="1" as="geometry">
            <mxPoint x="370" y="360" as="targetPoint" />
            <Array as="points">
              <mxPoint x="370" y="335" />
            </Array>
          </mxGeometry>
        </mxCell>
        <mxCell id="8L1MjitNSCZlOtgvuLpw-7" value="&lt;div&gt;Is the connection to the&lt;/div&gt;&lt;div&gt;&amp;nbsp;server under the &quot;send drone threshold?&lt;br&gt;&lt;/div&gt;" style="rhombus;whiteSpace=wrap;html=1;fillColor=#dae8fc;strokeColor=#6c8ebf;" parent="1" vertex="1">
          <mxGeometry x="110" y="270" width="200" height="130" as="geometry" />
        </mxCell>
        <mxCell id="8L1MjitNSCZlOtgvuLpw-9" value="No" style="text;html=1;align=center;verticalAlign=middle;resizable=0;points=[];autosize=1;strokeColor=none;fillColor=none;" parent="1" vertex="1">
          <mxGeometry x="240" y="160" width="40" height="30" as="geometry" />
        </mxCell>
        <mxCell id="8L1MjitNSCZlOtgvuLpw-32" style="edgeStyle=orthogonalEdgeStyle;rounded=0;orthogonalLoop=1;jettySize=auto;html=1;entryX=0;entryY=0.5;entryDx=0;entryDy=0;exitX=0;exitY=0.5;exitDx=0;exitDy=0;" parent="1" source="8L1MjitNSCZlOtgvuLpw-11" target="8L1MjitNSCZlOtgvuLpw-29" edge="1">
          <mxGeometry relative="1" as="geometry" />
        </mxCell>
        <mxCell id="8L1MjitNSCZlOtgvuLpw-36" style="edgeStyle=orthogonalEdgeStyle;rounded=0;orthogonalLoop=1;jettySize=auto;html=1;entryX=0.5;entryY=0;entryDx=0;entryDy=0;exitX=0.5;exitY=1;exitDx=0;exitDy=0;" parent="1" source="8L1MjitNSCZlOtgvuLpw-11" target="8L1MjitNSCZlOtgvuLpw-35" edge="1">
          <mxGeometry relative="1" as="geometry" />
        </mxCell>
        <mxCell id="8L1MjitNSCZlOtgvuLpw-11" value="&lt;div&gt;Is the connection to the&lt;/div&gt;&lt;div&gt;&amp;nbsp;server under the &quot;switch&quot; &lt;br&gt;&lt;/div&gt;&lt;div&gt;threshold?&lt;br&gt;&lt;/div&gt;" style="rhombus;whiteSpace=wrap;html=1;fillColor=#dae8fc;strokeColor=#6c8ebf;" parent="1" vertex="1">
          <mxGeometry x="110" y="500" width="200" height="130" as="geometry" />
        </mxCell>
        <mxCell id="8L1MjitNSCZlOtgvuLpw-13" value="No" style="text;html=1;align=center;verticalAlign=middle;resizable=0;points=[];autosize=1;strokeColor=none;fillColor=none;" parent="1" vertex="1">
          <mxGeometry x="170" y="418" width="40" height="30" as="geometry" />
        </mxCell>
        <mxCell id="8L1MjitNSCZlOtgvuLpw-18" style="edgeStyle=orthogonalEdgeStyle;rounded=0;orthogonalLoop=1;jettySize=auto;html=1;entryX=1;entryY=0.5;entryDx=0;entryDy=0;exitX=0.5;exitY=1;exitDx=0;exitDy=0;" parent="1" source="8L1MjitNSCZlOtgvuLpw-19" target="8L1MjitNSCZlOtgvuLpw-11" edge="1">
          <mxGeometry relative="1" as="geometry">
            <mxPoint x="370" y="490" as="sourcePoint" />
          </mxGeometry>
        </mxCell>
        <mxCell id="8L1MjitNSCZlOtgvuLpw-16" value="Yes" style="text;html=1;align=center;verticalAlign=middle;resizable=0;points=[];autosize=1;strokeColor=none;fillColor=none;" parent="1" vertex="1">
          <mxGeometry x="330" y="300" width="40" height="30" as="geometry" />
        </mxCell>
        <mxCell id="8L1MjitNSCZlOtgvuLpw-19" value="Ask for drone deployment" style="rounded=1;whiteSpace=wrap;html=1;fillColor=#d5e8d4;strokeColor=#82b366;" parent="1" vertex="1">
          <mxGeometry x="310" y="403" width="120" height="60" as="geometry" />
        </mxCell>
        <mxCell id="8L1MjitNSCZlOtgvuLpw-37" style="edgeStyle=orthogonalEdgeStyle;rounded=0;orthogonalLoop=1;jettySize=auto;html=1;entryX=0.5;entryY=0;entryDx=0;entryDy=0;exitX=0.5;exitY=1;exitDx=0;exitDy=0;" parent="1" source="8L1MjitNSCZlOtgvuLpw-20" target="8L1MjitNSCZlOtgvuLpw-35" edge="1">
          <mxGeometry relative="1" as="geometry">
            <mxPoint x="590" y="670" as="targetPoint" />
            <Array as="points">
              <mxPoint x="730" y="500" />
              <mxPoint x="580" y="500" />
            </Array>
          </mxGeometry>
        </mxCell>
        <mxCell id="8L1MjitNSCZlOtgvuLpw-20" value="Make connection directly to server" style="rounded=1;whiteSpace=wrap;html=1;fillColor=#d5e8d4;strokeColor=#82b366;" parent="1" vertex="1">
          <mxGeometry x="670" y="403" width="120" height="60" as="geometry" />
        </mxCell>
        <mxCell id="8L1MjitNSCZlOtgvuLpw-22" value="Yes" style="text;html=1;align=center;verticalAlign=middle;resizable=0;points=[];autosize=1;strokeColor=none;fillColor=none;" parent="1" vertex="1">
          <mxGeometry x="690" y="288" width="40" height="30" as="geometry" />
        </mxCell>
        <mxCell id="8L1MjitNSCZlOtgvuLpw-25" style="edgeStyle=orthogonalEdgeStyle;rounded=0;orthogonalLoop=1;jettySize=auto;html=1;" parent="1" source="8L1MjitNSCZlOtgvuLpw-24" target="8L1MjitNSCZlOtgvuLpw-1" edge="1">
          <mxGeometry relative="1" as="geometry" />
        </mxCell>
        <mxCell id="8L1MjitNSCZlOtgvuLpw-24" value="Start" style="ellipse;whiteSpace=wrap;html=1;fillColor=#f8cecc;strokeColor=#b85450;" parent="1" vertex="1">
          <mxGeometry x="340" y="20" width="120" height="80" as="geometry" />
        </mxCell>
        <mxCell id="8L1MjitNSCZlOtgvuLpw-40" style="edgeStyle=orthogonalEdgeStyle;rounded=0;orthogonalLoop=1;jettySize=auto;html=1;exitX=1;exitY=0.5;exitDx=0;exitDy=0;entryX=0.5;entryY=0;entryDx=0;entryDy=0;" parent="1" source="8L1MjitNSCZlOtgvuLpw-29" target="8L1MjitNSCZlOtgvuLpw-35" edge="1">
          <mxGeometry relative="1" as="geometry" />
        </mxCell>
        <mxCell id="8L1MjitNSCZlOtgvuLpw-44" style="edgeStyle=orthogonalEdgeStyle;rounded=0;orthogonalLoop=1;jettySize=auto;html=1;entryX=0;entryY=0.5;entryDx=0;entryDy=0;exitX=0.5;exitY=1;exitDx=0;exitDy=0;" parent="1" source="8L1MjitNSCZlOtgvuLpw-29" target="8L1MjitNSCZlOtgvuLpw-41" edge="1">
          <mxGeometry relative="1" as="geometry" />
        </mxCell>
        <mxCell id="8L1MjitNSCZlOtgvuLpw-29" value="Is the Relay RSSI &amp;gt; Server RSSI " style="rhombus;whiteSpace=wrap;html=1;fillColor=#dae8fc;strokeColor=#6c8ebf;" parent="1" vertex="1">
          <mxGeometry x="110" y="680" width="200" height="130" as="geometry" />
        </mxCell>
        <mxCell id="8L1MjitNSCZlOtgvuLpw-31" value="Yes" style="text;html=1;align=center;verticalAlign=middle;resizable=0;points=[];autosize=1;strokeColor=none;fillColor=none;" parent="1" vertex="1">
          <mxGeometry x="70" y="530" width="40" height="30" as="geometry" />
        </mxCell>
        <mxCell id="8L1MjitNSCZlOtgvuLpw-35" value="End" style="ellipse;whiteSpace=wrap;html=1;fillColor=#ffe6cc;strokeColor=#d79b00;" parent="1" vertex="1">
          <mxGeometry x="520" y="670" width="120" height="80" as="geometry" />
        </mxCell>
        <mxCell id="8L1MjitNSCZlOtgvuLpw-39" value="No" style="text;html=1;align=center;verticalAlign=middle;resizable=0;points=[];autosize=1;strokeColor=none;fillColor=none;" parent="1" vertex="1">
          <mxGeometry x="530" y="418" width="40" height="30" as="geometry" />
        </mxCell>
        <mxCell id="8L1MjitNSCZlOtgvuLpw-42" style="edgeStyle=orthogonalEdgeStyle;rounded=0;orthogonalLoop=1;jettySize=auto;html=1;entryX=0.5;entryY=0;entryDx=0;entryDy=0;" parent="1" source="8L1MjitNSCZlOtgvuLpw-41" target="8L1MjitNSCZlOtgvuLpw-35" edge="1">
          <mxGeometry relative="1" as="geometry">
            <Array as="points">
              <mxPoint x="414" y="650" />
              <mxPoint x="580" y="650" />
            </Array>
          </mxGeometry>
        </mxCell>
        <mxCell id="8L1MjitNSCZlOtgvuLpw-41" value="Make connection through Relay" style="rounded=1;whiteSpace=wrap;html=1;fillColor=#d5e8d4;strokeColor=#82b366;" parent="1" vertex="1">
          <mxGeometry x="354" y="800" width="120" height="60" as="geometry" />
        </mxCell>
        <mxCell id="8L1MjitNSCZlOtgvuLpw-43" value="No" style="text;html=1;align=center;verticalAlign=middle;resizable=0;points=[];autosize=1;strokeColor=none;fillColor=none;" parent="1" vertex="1">
          <mxGeometry x="320" y="710" width="40" height="30" as="geometry" />
        </mxCell>
        <mxCell id="8L1MjitNSCZlOtgvuLpw-45" value="Yes" style="text;html=1;align=center;verticalAlign=middle;resizable=0;points=[];autosize=1;strokeColor=none;fillColor=none;" parent="1" vertex="1">
          <mxGeometry x="210" y="828" width="40" height="30" as="geometry" />
        </mxCell>
        <mxCell id="8L1MjitNSCZlOtgvuLpw-46" value="No" style="text;html=1;align=center;verticalAlign=middle;resizable=0;points=[];autosize=1;strokeColor=none;fillColor=none;" parent="1" vertex="1">
          <mxGeometry x="250" y="620" width="40" height="30" as="geometry" />
        </mxCell>
      </root>
    </mxGraphModel>
  </diagram>
</mxfile>
